<svg width="22" height="22" viewBox="0 0 22 22" fill="none" xmlns="http://www.w3.org/2000/svg">
<path d="M9.63235 17.9926H11.4847V16.6695C12.3668 16.5107 13.1254 16.1667 13.7605 15.6375C14.3956 15.1082 14.7132 14.3232 14.7132 13.2823C14.7132 12.5414 14.5015 11.8622 14.0781 11.2447C13.6547 10.6272 12.8079 10.0892 11.5377 9.63049C10.4792 9.27766 9.74702 8.96893 9.34126 8.7043C8.9355 8.43968 8.73263 8.07802 8.73263 7.61934C8.73263 7.16066 8.89581 6.799 9.22218 6.53438C9.54855 6.26975 10.0205 6.13744 10.6379 6.13744C11.2025 6.13744 11.6435 6.27416 11.9611 6.54761C12.2786 6.82105 12.5079 7.16066 12.6491 7.56641L14.3427 6.87839C14.1486 6.26093 13.7914 5.72286 13.2709 5.26418C12.7505 4.80549 12.1728 4.54969 11.5377 4.49676V3.17364H9.68528V4.49676C8.80319 4.69082 8.11517 5.07894 7.6212 5.66111C7.12723 6.24329 6.88025 6.89603 6.88025 7.61934C6.88025 8.4485 7.12282 9.11888 7.60797 9.63049C8.09311 10.1421 8.85612 10.5831 9.89698 10.9536C11.0084 11.3594 11.7802 11.721 12.2124 12.0386C12.6447 12.3561 12.8608 12.7707 12.8608 13.2823C12.8608 13.8645 12.6535 14.2923 12.2389 14.5657C11.8243 14.8392 11.326 14.9759 10.7438 14.9759C10.1616 14.9759 9.64558 14.7951 9.19572 14.4334C8.74586 14.0718 8.41508 13.5293 8.20338 12.806L6.45685 13.494C6.70383 14.3408 7.08754 15.0244 7.60797 15.5449C8.1284 16.0653 8.80319 16.4225 9.63235 16.6166V17.9926ZM10.585 21.1681C9.12074 21.1681 7.74469 20.8903 6.45685 20.3346C5.16901 19.7789 4.04876 19.0247 3.09611 18.072C2.14346 17.1194 1.38928 15.9991 0.833569 14.7113C0.277856 13.4234 0 12.0474 0 10.5831C0 9.11888 0.277856 7.74283 0.833569 6.45499C1.38928 5.16715 2.14346 4.0469 3.09611 3.09425C4.04876 2.1416 5.16901 1.38742 6.45685 0.831707C7.74469 0.275995 9.12074 -0.00186157 10.585 -0.00186157C12.0493 -0.00186157 13.4253 0.275995 14.7132 0.831707C16.001 1.38742 17.1212 2.1416 18.0739 3.09425C19.0265 4.0469 19.7807 5.16715 20.3364 6.45499C20.8921 7.74283 21.17 9.11888 21.17 10.5831C21.17 12.0474 20.8921 13.4234 20.3364 14.7113C19.7807 15.9991 19.0265 17.1194 18.0739 18.072C17.1212 19.0247 16.001 19.7789 14.7132 20.3346C13.4253 20.8903 12.0493 21.1681 10.585 21.1681Z" fill="white"/>
</svg>
